// Created by Crowbar 0.56
version 1
nodes
  0 "pelvis" -1
  1 "lean_root" -1
  2 "cam_driver" -1
  3 "spine_0" 0
  4 "spine_1" 3
  5 "spine_2" 4
  6 "spine_3" 5
  7 "neck_0" 6
  8 "head_0" 7
  9 "jiggle_hood" 7
  10 "clavicle_L" 6
  11 "arm_upper_L" 10
  12 "arm_lower_L" 11
  13 "hand_L" 12
  14 "finger_middle_meta_L" 13
  15 "finger_middle_0_L" 14
  16 "finger_middle_1_L" 15
  17 "finger_middle_2_L" 16
  18 "finger_pinky_meta_L" 13
  19 "finger_pinky_0_L" 18
  20 "finger_pinky_1_L" 19
  21 "finger_pinky_2_L" 20
  22 "finger_index_meta_L" 13
  23 "finger_index_0_L" 22
  24 "finger_index_1_L" 23
  25 "finger_index_2_L" 24
  26 "finger_thumb_0_L" 13
  27 "finger_thumb_1_L" 26
  28 "finger_thumb_2_L" 27
  29 "finger_ring_meta_L" 13
  30 "finger_ring_0_L" 29
  31 "finger_ring_1_L" 30
  32 "finger_ring_2_L" 31
  33 "weapon_hand_L" 13
  34 "arm_lower_L_TWIST" 12
  35 "arm_lower_L_TWIST1" 12
  36 "arm_upper_L_TWIST" 11
  37 "arm_upper_L_TWIST1" 11
  38 "clavicle_R" 6
  39 "arm_upper_R" 38
  40 "arm_lower_R" 39
  41 "hand_R" 40
  42 "finger_middle_meta_R" 41
  43 "finger_middle_0_R" 42
  44 "finger_middle_1_R" 43
  45 "finger_middle_2_R" 44
  46 "finger_pinky_meta_R" 41
  47 "finger_pinky_0_R" 46
  48 "finger_pinky_1_R" 47
  49 "finger_pinky_2_R" 48
  50 "finger_index_meta_R" 41
  51 "finger_index_0_R" 50
  52 "finger_index_1_R" 51
  53 "finger_index_2_R" 52
  54 "finger_thumb_0_R" 41
  55 "finger_thumb_1_R" 54
  56 "finger_thumb_2_R" 55
  57 "finger_ring_meta_R" 41
  58 "finger_ring_0_R" 57
  59 "finger_ring_1_R" 58
  60 "finger_ring_2_R" 59
  61 "weapon_hand_R" 41
  62 "arm_lower_R_TWIST" 40
  63 "arm_lower_R_TWIST1" 40
  64 "arm_upper_R_TWIST" 39
  65 "arm_upper_R_TWIST1" 39
  66 "scapula_R" 38
  67 "jiggle_back_micropouches" 6
  68 "jiggle_front_micropouches" 5
  69 "jiggle_front_pouch_01" 5
  70 "jiggle_front_pouch_02" 5
  71 "leg_upper_L" 0
  72 "leg_lower_L" 71
  73 "ankle_L" 72
  74 "ball_L" 73
  75 "lfoot_lock" 74
  76 "leg_upper_L_TWIST" 71
  77 "leg_upper_L_TWIST1" 71
  78 "jiggle_climbinggear_01" 71
  79 "jiggle_climbinggear_02" 78
  80 "leg_upper_R" 0
  81 "leg_lower_R" 80
  82 "ankle_R" 81
  83 "ball_R" 82
  84 "rfoot_lock" 83
  85 "leg_upper_R_TWIST" 80
  86 "leg_upper_R_TWIST1" 80
  87 "jiggle_holster" 80
  88 "finger_pinky_L_END" 21
  89 "finger_thumb_L_END" 28
  90 "finger_ring_L_END" 32
  91 "finger_pinky_R_END" 49
  92 "finger_thumb_R_END" 56
  93 "finger_ring_R_END" 60
  94 "ValveBiped.weapon_bone" 41
  95 "lh_ik_driver" 13
  96 "primary_jiggle_jnt" 5
  97 "primary_smg_jiggle_jnt" 5
end
skeleton
  time 0
    0 0.065369 0.633301 39.250000 1.256555 -1.503795 1.182273
    1 0.000000 0.000000 0.000000 0.000000 0.000000 -1.570796
    2 0.000000 0.000000 64.000000 0.000000 0.000000 -1.570796
    3 0.934204 0.090506 0.000000 -0.009382 -0.030960 0.191469
    4 3.972656 0.000000 0.000000 -0.039609 -0.042712 0.042174
    5 4.679688 0.000000 0.000000 -0.025308 -0.023961 0.102416
    6 6.269531 0.000000 0.000000 -0.018084 -0.000019 0.237471
    7 6.167969 -0.000013 0.000000 -0.014406 -0.023328 0.328372
    8 5.886719 0.497070 0.147217 0.548143 0.181643 -0.374552
    9 1.022366 -3.844492 -0.010687 0.517352 1.514741 -1.470512
    10 4.311546 3.005295 1.270492 1.862130 -1.408020 -2.068862
    11 6.665433 0.000000 0.000004 -0.914804 -0.111183 1.044476
    12 11.596664 0.000000 0.000000 0.000000 0.000000 1.259730
    13 11.486961 0.000000 0.000004 -0.070876 -0.223763 -0.549848
    14 0.807840 0.015438 -0.224508 0.103565 -0.098441 -0.078206
    15 3.265087 0.000000 0.000000 -0.276613 -0.192440 0.738758
    16 2.075735 0.000000 0.000000 0.007083 0.014390 1.259712
    17 1.413418 0.000000 0.000000 0.001067 -0.003125 0.535507
    18 0.562845 0.124912 0.989240 -0.148194 -0.319427 0.214018
    19 2.704884 -0.000004 0.000000 -0.186988 0.033410 0.899368
    20 1.511129 0.000000 0.000000 -0.026933 -0.097828 1.023502
    21 0.872662 0.000002 0.000000 -0.067031 0.050291 0.055762
    22 0.802782 0.214901 -0.873659 0.217206 0.057814 -0.081382
    23 3.290380 -0.000004 -0.000001 -0.423759 -0.268338 0.567963
    24 1.995686 0.000002 0.000000 0.067882 0.016937 1.305453
    25 1.269020 0.000000 0.000000 -0.084681 -0.042698 0.415356
    26 1.423075 0.741585 -1.176400 1.302713 0.562959 0.171587
    27 1.698864 0.000000 -0.000002 0.002120 -0.068488 0.193187
    28 1.566338 -0.000001 0.000000 -0.166730 -0.116758 -0.333845
    29 0.711737 0.057610 0.410458 0.066852 -0.215308 -0.019739
    30 2.987719 0.000000 0.000001 -0.220725 -0.071322 0.822333
    31 1.910931 0.000002 0.000000 0.004087 0.007577 1.239945
    32 1.280708 0.000000 0.000000 0.008955 -0.022134 0.297001
    33 2.790777 1.123611 0.295327 0.000000 0.000000 -3.141593
    34 3.828987 0.000000 0.000000 0.000000 0.000000 0.000000
    35 7.657978 -0.000001 0.000004 0.000000 0.000000 0.000000
    36 3.865551 0.000000 0.000000 0.000000 0.000000 0.000000
    37 7.731106 0.000004 -0.000004 0.000000 0.000000 0.000000
    38 4.311554 3.005294 -1.270490 1.552562 -1.351151 1.754690
    39 -6.304688 -0.000006 0.000000 -2.537081 0.139324 -1.512904
    40 11.596653 -0.000001 -0.000004 -1.570803 0.000011 -1.937028
    41 11.486988 0.000000 0.000000 2.386313 0.701280 -3.132647
    42 -0.807777 -0.015434 0.224528 0.103295 -0.067227 -0.074952
    43 -3.265091 -0.000004 0.000000 -0.044856 0.016006 1.108385
    44 -2.075773 0.000038 -0.000016 0.004683 0.019010 1.115901
    45 -1.413406 0.000010 -0.000002 -0.003076 -0.015281 0.978110
    46 -0.562847 -0.124886 -0.989244 -0.013656 -0.312493 0.088192
    47 -2.704912 0.000000 0.000000 0.020890 0.203152 0.747338
    48 -1.511091 -0.000019 -0.000010 -0.035374 -0.109316 1.105183
    49 -0.872673 -0.000021 0.000007 -0.061391 -0.134607 0.804010
    50 -0.802748 -0.214920 0.873668 0.231128 0.089371 -0.103435
    51 -3.290361 0.000015 0.000001 -0.087019 0.153985 0.574759
    52 -1.995720 0.000071 -0.000042 -0.032702 0.014674 0.775802
    53 -1.268997 -0.000080 0.000055 -0.019585 0.004466 1.252857
    54 -1.423063 -0.741623 1.176404 2.751404 0.100510 1.185318
    55 -1.698803 0.000021 -0.000076 0.268482 -0.160906 0.968332
    56 -1.566319 0.000017 0.000044 0.099726 0.056735 0.555475
    57 -0.711681 -0.057610 -0.410446 0.066428 -0.183995 -0.017605
    58 -2.987785 0.000034 -0.000009 0.000336 0.032567 0.910868
    59 -1.910934 -0.000069 0.000009 0.003017 0.006728 1.090984
    60 -1.280689 0.000076 -0.000006 0.008591 0.011945 0.897033
    61 -3.097656 -1.580078 0.022552 0.000000 0.000000 -3.141593
    62 3.828993 0.000004 0.000000 1.570796 -0.000001 3.141592
    63 7.658005 0.000004 0.000000 1.570796 -0.000001 3.141592
    64 3.865551 -0.000001 -0.000004 3.141593 -0.000003 -3.141593
    65 7.731098 -0.000005 -0.000004 3.141593 -0.000003 -3.141593
    66 -5.998333 0.409463 1.968811 -2.558594 -1.280972 -1.306270
    67 -0.109306 -6.601205 0.795064 -1.789121 -1.417980 -0.134062
    68 -0.869808 5.186763 5.650943 0.138590 -0.954931 -1.577515
    69 -1.057919 3.888997 -8.370535 3.046411 -0.574096 1.729248
    70 -1.455963 6.942204 -4.286187 3.058026 -1.168014 1.698661
    71 -3.771385 0.913481 3.694230 -0.200047 -0.297232 2.734899
    72 17.902943 0.000000 0.000000 0.000000 0.000000 0.651281
    73 16.937239 0.000000 0.000000 2.990505 0.089174 -1.195321
    74 6.329626 0.000000 0.000000 0.000000 0.000000 0.500448
    75 0.000000 0.000000 0.000000 0.000000 0.000000 0.000000
    76 5.967648 0.000002 0.000000 0.000000 0.000000 0.000000
    77 11.935295 0.000002 0.000000 0.000000 0.000000 0.000000
    78 -3.544342 -4.397163 2.808476 -2.974709 -0.919726 -1.824335
    79 0.322567 -2.860958 0.039170 0.000000 0.000000 0.000000
    80 -3.771431 0.913481 -3.694230 1.917776 0.402491 3.081272
    81 17.902935 0.000000 0.000000 0.000000 0.650639 0.000000
    82 16.937189 0.000000 0.000000 -2.558411 1.351554 2.559878
    83 -6.329633 -0.000002 0.000003 0.000000 0.000000 0.500448
    84 0.000000 0.000000 0.000000 0.000000 0.000000 0.000000
    85 5.967651 0.000000 0.000000 1.570796 0.000000 -3.141593
    86 11.935297 -0.000001 0.000000 1.570796 0.000000 -3.141593
    87 4.588383 -4.984219 0.884278 0.010283 -1.268259 1.721886
    88 0.619389 0.000002 0.000000 0.000000 0.000000 0.000000
    89 1.294838 0.000000 0.000000 0.000000 0.000000 0.000000
    90 1.041981 0.000002 0.000000 0.000000 0.000000 0.000000
    91 -0.619343 -0.000025 -0.000013 0.000000 0.000000 0.000000
    92 -1.294922 -0.000015 -0.000044 0.000000 0.000000 0.000000
    93 -1.041943 -0.000005 -0.000011 0.000000 0.000000 0.000000
    94 -7.000002 -2.000004 2.500001 1.919862 0.000000 -1.570796
    95 0.000002 0.000000 0.000000 0.000000 0.000000 0.000000
    96 3.199997 -8.200000 -4.300000 -0.575959 0.052360 -2.984513
    97 6.099998 8.600001 0.500000 0.000000 -0.610865 2.967060
end
