// Created by Crowbar 0.56
version 1
nodes
  0 "pelvis" -1
  1 "lean_root" -1
  2 "cam_driver" -1
  3 "spine_0" 0
  4 "spine_1" 3
  5 "spine_2" 4
  6 "spine_3" 5
  7 "neck_0" 6
  8 "head_0" 7
  9 "jiggle_hood" 7
  10 "clavicle_L" 6
  11 "arm_upper_L" 10
  12 "arm_lower_L" 11
  13 "hand_L" 12
  14 "finger_middle_meta_L" 13
  15 "finger_middle_0_L" 14
  16 "finger_middle_1_L" 15
  17 "finger_middle_2_L" 16
  18 "finger_pinky_meta_L" 13
  19 "finger_pinky_0_L" 18
  20 "finger_pinky_1_L" 19
  21 "finger_pinky_2_L" 20
  22 "finger_index_meta_L" 13
  23 "finger_index_0_L" 22
  24 "finger_index_1_L" 23
  25 "finger_index_2_L" 24
  26 "finger_thumb_0_L" 13
  27 "finger_thumb_1_L" 26
  28 "finger_thumb_2_L" 27
  29 "finger_ring_meta_L" 13
  30 "finger_ring_0_L" 29
  31 "finger_ring_1_L" 30
  32 "finger_ring_2_L" 31
  33 "weapon_hand_L" 13
  34 "arm_lower_L_TWIST" 12
  35 "arm_lower_L_TWIST1" 12
  36 "arm_upper_L_TWIST" 11
  37 "arm_upper_L_TWIST1" 11
  38 "clavicle_R" 6
  39 "arm_upper_R" 38
  40 "arm_lower_R" 39
  41 "hand_R" 40
  42 "finger_middle_meta_R" 41
  43 "finger_middle_0_R" 42
  44 "finger_middle_1_R" 43
  45 "finger_middle_2_R" 44
  46 "finger_pinky_meta_R" 41
  47 "finger_pinky_0_R" 46
  48 "finger_pinky_1_R" 47
  49 "finger_pinky_2_R" 48
  50 "finger_index_meta_R" 41
  51 "finger_index_0_R" 50
  52 "finger_index_1_R" 51
  53 "finger_index_2_R" 52
  54 "finger_thumb_0_R" 41
  55 "finger_thumb_1_R" 54
  56 "finger_thumb_2_R" 55
  57 "finger_ring_meta_R" 41
  58 "finger_ring_0_R" 57
  59 "finger_ring_1_R" 58
  60 "finger_ring_2_R" 59
  61 "weapon_hand_R" 41
  62 "arm_lower_R_TWIST" 40
  63 "arm_lower_R_TWIST1" 40
  64 "arm_upper_R_TWIST" 39
  65 "arm_upper_R_TWIST1" 39
  66 "scapula_R" 38
  67 "jiggle_back_micropouches" 6
  68 "jiggle_front_micropouches" 5
  69 "jiggle_front_pouch_01" 5
  70 "jiggle_front_pouch_02" 5
  71 "leg_upper_L" 0
  72 "leg_lower_L" 71
  73 "ankle_L" 72
  74 "ball_L" 73
  75 "lfoot_lock" 74
  76 "leg_upper_L_TWIST" 71
  77 "leg_upper_L_TWIST1" 71
  78 "jiggle_climbinggear_01" 71
  79 "jiggle_climbinggear_02" 78
  80 "leg_upper_R" 0
  81 "leg_lower_R" 80
  82 "ankle_R" 81
  83 "ball_R" 82
  84 "rfoot_lock" 83
  85 "leg_upper_R_TWIST" 80
  86 "leg_upper_R_TWIST1" 80
  87 "jiggle_holster" 80
  88 "finger_pinky_L_END" 21
  89 "finger_thumb_L_END" 28
  90 "finger_ring_L_END" 32
  91 "finger_pinky_R_END" 49
  92 "finger_thumb_R_END" 56
  93 "finger_ring_R_END" 60
  94 "ValveBiped.weapon_bone" 41
  95 "lh_ik_driver" 13
  96 "primary_jiggle_jnt" 5
  97 "primary_smg_jiggle_jnt" 5
end
skeleton
  time 0
    0 -0.000002 42.812500 -2.853516 1.570795 0.001728 1.569068
    1 0.000000 0.000000 0.000000 0.000000 0.000000 -1.570796
    2 0.000000 0.000000 64.000000 0.000000 0.000000 -1.570796
    3 0.934204 0.090506 0.000000 0.000000 0.000000 0.115469
    4 4.066376 0.000001 0.000000 0.000000 0.000000 -0.117289
    5 4.744072 0.000000 0.000000 0.000000 0.000000 -0.183317
    6 6.347771 0.000001 0.000000 0.000000 0.000000 0.244364
    7 6.515205 -0.000016 0.000000 0.000000 0.000000 0.244092
    8 5.762157 0.000002 0.000000 0.000000 0.000000 -0.303318
    9 1.022366 -3.844492 -0.010687 0.517352 1.514741 -1.470512
    10 4.311546 3.005295 1.270492 2.014360 -1.079695 -2.025331
    11 6.665433 0.000000 0.000004 0.204288 -0.663234 0.279905
    12 11.596664 0.000000 0.000000 0.000000 0.000000 0.444713
    13 11.486961 0.000000 0.000004 1.508139 -0.052952 0.048995
    14 0.807840 0.015438 -0.224508 0.103565 -0.098441 -0.078206
    15 3.265087 0.000000 0.000000 0.041931 -0.052018 0.432386
    16 2.075735 0.000000 0.000000 0.004352 0.027174 0.353438
    17 1.413418 0.000000 0.000000 0.000574 0.006189 0.215413
    18 0.562845 0.124912 0.989240 -0.013803 -0.343873 0.088648
    19 2.704884 -0.000004 0.000000 -0.073501 -0.121662 0.194214
    20 1.511129 0.000000 0.000000 0.002278 0.014366 0.350919
    21 0.872662 0.000002 0.000000 0.001434 -0.023162 0.046339
    22 0.802782 0.214901 -0.873659 0.211404 0.053247 -0.065452
    23 3.290380 -0.000004 -0.000001 0.102639 -0.023954 0.493034
    24 1.995686 0.000002 0.000000 0.001969 0.011011 0.330632
    25 1.269020 0.000000 0.000000 0.003420 -0.036626 0.013894
    26 1.423075 0.741585 -1.176400 1.569841 0.470007 0.577772
    27 1.698864 0.000000 -0.000002 -0.018131 -0.097498 0.436259
    28 1.566338 -0.000001 0.000000 0.001187 0.006260 0.300755
    29 0.711737 0.057610 0.410458 0.066852 -0.215308 -0.019739
    30 2.987719 0.000000 0.000001 -0.017702 -0.108415 0.407852
    31 1.910931 0.000002 0.000000 0.000094 0.000566 0.328027
    32 1.280708 0.000000 0.000000 0.000170 0.009073 0.134019
    33 2.790777 1.123611 0.295327 0.000000 0.000000 -3.141593
    34 3.828987 0.000000 0.000000 0.000000 0.000000 0.000000
    35 7.657978 -0.000001 0.000004 0.000000 0.000000 0.000000
    36 3.865551 0.000000 0.000000 0.000000 0.000000 0.000000
    37 7.731106 0.000004 -0.000004 0.000000 0.000000 0.000000
    38 4.311554 3.005294 -1.270490 2.014360 -1.079696 1.116263
    39 -6.665439 -0.000003 0.000000 2.937304 0.663237 -2.861688
    40 11.596653 -0.000001 -0.000004 -1.570798 0.000003 -0.444712
    41 11.486988 0.000000 0.000000 3.081531 -0.048927 3.088576
    42 -0.807777 -0.015434 0.224528 0.103565 -0.098441 -0.078206
    43 -3.265091 -0.000004 0.000000 0.041931 -0.052018 0.432386
    44 -2.075773 0.000038 -0.000016 0.004352 0.027174 0.353438
    45 -1.413406 0.000010 -0.000002 0.000574 0.006189 0.215413
    46 -0.562847 -0.124886 -0.989244 -0.013803 -0.343873 0.088648
    47 -2.704912 0.000000 0.000000 -0.073501 -0.121662 0.194214
    48 -1.511091 -0.000019 -0.000010 0.002279 0.014366 0.350919
    49 -0.872673 -0.000021 0.000007 0.001434 -0.023162 0.046339
    50 -0.802748 -0.214920 0.873668 0.211404 0.053247 -0.065452
    51 -3.290361 0.000015 0.000001 0.102639 -0.023954 0.493034
    52 -1.995720 0.000071 -0.000042 0.001969 0.011011 0.330632
    53 -1.268997 -0.000080 0.000055 0.003420 -0.036626 0.013894
    54 -1.423063 -0.741623 1.176404 1.569841 0.470007 0.577772
    55 -1.698803 0.000021 -0.000076 -0.018132 -0.097498 0.436259
    56 -1.566319 0.000017 0.000044 0.001187 0.006260 0.300755
    57 -0.711681 -0.057610 -0.410446 0.066852 -0.215308 -0.019739
    58 -2.987785 0.000034 -0.000009 -0.017702 -0.108415 0.407852
    59 -1.910934 -0.000069 0.000009 0.000094 0.000566 0.328027
    60 -1.280689 0.000076 -0.000006 0.000170 0.009073 0.134019
    61 -2.790766 -1.123657 -0.295324 0.000000 0.000000 -3.141593
    62 3.828993 0.000004 0.000000 1.570796 -0.000001 3.141592
    63 7.658005 0.000004 0.000000 1.570796 -0.000001 3.141592
    64 3.865551 -0.000001 -0.000004 3.141593 -0.000003 -3.141593
    65 7.731098 -0.000005 -0.000004 3.141593 -0.000003 -3.141593
    66 -5.998333 0.409463 1.968811 -2.558594 -1.280972 -1.306270
    67 -0.109306 -6.601205 0.795064 -1.789121 -1.417980 -0.134062
    68 -0.869808 5.186763 5.650943 0.138590 -0.954931 -1.577515
    69 -1.057919 3.888997 -8.370535 3.046411 -0.574096 1.729248
    70 -1.455963 6.942204 -4.286187 3.058026 -1.168014 1.698661
    71 -3.771385 0.913481 3.694230 -0.261951 -0.039640 3.127120
    72 17.902943 0.000000 0.000000 0.000000 0.000000 0.128555
    73 16.937239 0.000000 0.000000 3.136427 0.039455 -1.175481
    74 6.329626 0.000000 0.000000 0.000000 0.000000 0.500448
    75 0.000000 0.000000 0.000000 0.000000 0.000000 0.000000
    76 5.967648 0.000002 0.000000 0.000000 0.000000 0.000000
    77 11.935295 0.000002 0.000000 0.000000 0.000000 0.000000
    78 -3.544342 -4.397163 2.808476 -2.974709 -0.919726 -1.824335
    79 0.322567 -2.860958 0.039170 0.000000 0.000000 0.000000
    80 -3.771431 0.913481 -3.694230 1.832747 0.039640 3.127120
    81 17.902935 0.000000 0.000000 0.000000 0.128555 0.000000
    82 16.937189 0.000000 0.000000 -1.481715 1.173621 -3.039443
    83 -6.329633 -0.000002 0.000003 0.000000 0.000000 0.500448
    84 0.000000 0.000000 0.000000 0.000000 0.000000 0.000000
    85 5.967651 0.000000 0.000000 1.570796 0.000000 -3.141593
    86 11.935297 -0.000001 0.000000 1.570796 0.000000 -3.141593
    87 4.588383 -4.984219 0.884278 0.010283 -1.268259 1.721886
    88 0.619389 0.000002 0.000000 0.000000 0.000000 0.000000
    89 1.294838 0.000000 0.000000 0.000000 0.000000 0.000000
    90 1.041981 0.000002 0.000000 0.000000 0.000000 0.000000
    91 -0.619343 -0.000025 -0.000013 0.000000 0.000000 0.000000
    92 -1.294922 -0.000015 -0.000044 0.000000 0.000000 0.000000
    93 -1.041943 -0.000005 -0.000011 0.000000 0.000000 0.000000
    94 -7.000002 -2.000004 2.500001 1.919862 0.000000 -1.570796
    95 0.000002 0.000000 0.000000 0.000000 0.000000 0.000000
    96 3.199997 -8.200000 -4.300000 -0.575959 0.052360 -2.984513
    97 6.099998 8.600001 0.500000 0.000000 -0.610865 2.967060
end
