version 1
nodes
  0 "vcabone_VertexAnim"  -1
end
skeleton
time 0
  0    1.000000    0.000000    0.000000    0.000000   -0.000000    0.000000
time 1
  0    1.000000    0.026683    0.000000    0.000000   -0.000000    0.000000
time 2
  0    1.000000    0.053317    0.000000    0.000000   -0.000000    0.000000
time 3
  0    1.000000    0.080016    0.000000    0.000000   -0.000000    0.000000
time 4
  0    1.000000    0.106651    0.000000    0.000000   -0.000000    0.000000
time 5
  0    1.000000    0.133333    0.000000    0.000000   -0.000000    0.000000
time 6
  0    1.000000    0.160032    0.000000    0.000000   -0.000000    0.000000
time 7
  0    1.000000    0.186651    0.000000    0.000000   -0.000000    0.000000
time 8
  0    1.000000    0.213301    0.000000    0.000000   -0.000000    0.000000
time 9
  0    1.000000    0.240048    0.000000    0.000000   -0.000000    0.000000
time 10
  0    1.000000    0.266667    0.000000    0.000000   -0.000000    0.000000
time 11
  0    1.000000    0.293285    0.000000    0.000000   -0.000000    0.000000
time 12
  0    1.000000    0.320032    0.000000    0.000000   -0.000000    0.000000
time 13
  0    1.000000    0.346683    0.000000    0.000000   -0.000000    0.000000
time 14
  0    1.000000    0.373301    0.000000    0.000000   -0.000000    0.000000
time 15
  0    1.000000    0.400000    0.000000    0.000000   -0.000000    0.000000
time 16
  0    1.000000    0.426683    0.000000    0.000000   -0.000000    0.000000
time 17
  0    1.000000    0.453317    0.000000    0.000000   -0.000000    0.000000
time 18
  0    1.000000    0.480016    0.000000    0.000000   -0.000000    0.000000
time 19
  0    1.000000    0.506651    0.000000    0.000000   -0.000000    0.000000
time 20
  0    1.000000    0.533333    0.000000    0.000000   -0.000000    0.000000
time 21
  0    1.000000    0.560032    0.000000    0.000000   -0.000000    0.000000
time 22
  0    1.000000    0.586651    0.000000    0.000000   -0.000000    0.000000
time 23
  0    1.000000    0.613301    0.000000    0.000000   -0.000000    0.000000
time 24
  0    1.000000    0.640048    0.000000    0.000000   -0.000000    0.000000
time 25
  0    1.000000    0.666667    0.000000    0.000000   -0.000000    0.000000
time 26
  0    1.000000    0.693285    0.000000    0.000000   -0.000000    0.000000
time 27
  0    1.000000    0.720032    0.000000    0.000000   -0.000000    0.000000
time 28
  0    1.000000    0.746683    0.000000    0.000000   -0.000000    0.000000
time 29
  0    1.000000    0.773301    0.000000    0.000000   -0.000000    0.000000
time 30
  0    1.000000    0.800000    0.000000    0.000000   -0.000000    0.000000
time 31
  0    1.000000    0.826683    0.000000    0.000000   -0.000000    0.000000
time 32
  0    1.000000    0.853317    0.000000    0.000000   -0.000000    0.000000
time 33
  0    1.000000    0.880016    0.000000    0.000000   -0.000000    0.000000
time 34
  0    1.000000    0.906651    0.000000    0.000000   -0.000000    0.000000
time 35
  0    1.000000    0.933333    0.000000    0.000000   -0.000000    0.000000
time 36
  0    1.000000    0.960032    0.000000    0.000000   -0.000000    0.000000
time 37
  0    1.000000    0.986651    0.000000    0.000000   -0.000000    0.000000
end
